<svg xmlns="http://www.w3.org/2000/svg" viewBox="0 0 24 24" width="64" height="64">
  <defs>
    <linearGradient id="gradient" x1="0%" y1="0%" x2="100%" y2="0%">
      <stop offset="0%" style="stop-color:#2563eb;stop-opacity:1" />
      <stop offset="100%" style="stop-color:#4f46e5;stop-opacity:1" />
    </linearGradient>
  </defs>
  <rect width="24" height="24" rx="5" fill="url(#gradient)"/>
  <path d="M9.5 2a4.5 4.5 0 0 1 4.473 4H14v.5a.5.5 0 0 0 1 0V6h.027A4.5 4.5 0 1 1 20 10.5v.5h-.5a.5.5 0 0 0 0 1h.5v.5a4.5 4.5 0 0 1-5.973 4.246A5 5 0 0 1 5.5 12.5V12H5a.5.5 0 0 0 0 1h.5v.5a4.5 4.5 0 1 1-4-6H2a2 2 0 0 1-2-2V5a2 2 0 0 1 2-2h1.5a4.5 4.5 0 0 1 6-1Z" fill="white"/>
</svg>
