<svg xmlns="http://www.w3.org/2000/svg" width="64" height="64" viewBox="0 0 64 64">
  <!-- Background circle with gradient -->
  <circle cx="32" cy="32" r="30" fill="url(#gradient)"/>
  
  <!-- Define gradient -->
  <defs>
    <linearGradient id="gradient" x1="0%" y1="0%" x2="100%" y2="0%">
      <stop offset="0%" style="stop-color:#2563eb;stop-opacity:1" />
      <stop offset="100%" style="stop-color:#4f46e5;stop-opacity:1" />
    </linearGradient>
  </defs>
  
  <!-- Brain circuit icon (simplified version of lucide brain circuit) -->
  <g fill="none" stroke="white" stroke-width="3" stroke-linecap="round" stroke-linejoin="round" transform="translate(14, 12)">
    <path d="M12 4.5a2.5 2.5 0 0 0-4.96-.46 2.5 2.5 0 0 0-1.98 3 2.5 2.5 0 0 0-1.32 4.24 3 3 0 0 0 .34 5.58 2.5 2.5 0 0 0 2.96 3.08A2.5 2.5 0 0 0 9.5 21.5a2.5 2.5 0 0 0 4.13-2.8L15 19a2.5 2.5 0 0 0 1.84-4.21 2.5 2.5 0 0 0 1.32-4.24A2.5 2.5 0 0 0 15 8.5h-.2A2.5 2.5 0 0 0 12 4.5z"/>
    <path d="M12 4.5V19"/>
    <path d="M9 9.5l1.5-1.5 1.5 1.5"/>
    <path d="M9 14l1.5 1.5 1.5-1.5"/>
  </g>
</svg>